<svg width="12" height="13" viewBox="0 0 12 13" fill="none" xmlns="http://www.w3.org/2000/svg">
    <path fill-rule="evenodd" clip-rule="evenodd" d="M10.6667 0.5C11.0031 0.499894 11.327 0.626938 11.5737 0.855665C11.8204 1.08439 11.9714 1.3979 11.9967 1.73333L12 1.83333V8.5C12.0001 8.83638 11.8731 9.16038 11.6443 9.40703C11.4156 9.65369 11.1021 9.80477 10.7667 9.83L10.6667 9.83333H9.33333V11.1667C9.33344 11.5031 9.2064 11.827 8.97767 12.0737C8.74894 12.3204 8.43544 12.4714 8.1 12.4967L8 12.5H1.33333C0.996949 12.5001 0.672956 12.3731 0.426301 12.1443C0.179647 11.9156 0.0285623 11.6021 0.00333348 11.2667L6.68453e-08 11.1667V4.5C-0.000106386 4.16362 0.126938 3.83962 0.355665 3.59297C0.584392 3.34631 0.897897 3.19523 1.23333 3.17L1.33333 3.16667H2.66667V1.83333C2.66656 1.49695 2.7936 1.17296 3.02233 0.926301C3.25106 0.679647 3.56456 0.528562 3.9 0.503333L4 0.5H10.6667ZM8 4.5H1.33333V11.1667H8V4.5ZM10.6667 1.83333H4V3.16667H8L8.1 3.17C8.41745 3.19386 8.71588 3.3305 8.94135 3.55524C9.16682 3.77998 9.30444 4.07797 9.32933 4.39533L9.33333 4.5V8.5H10.6667V1.83333Z" fill="#09244B"/>
</svg>